<svg width="120" height="80" viewBox="0 0 120 80" fill="none" xmlns="http://www.w3.org/2000/svg">
<path d="M67.0309 27.4356H52.9698V52.7029H67.0309V27.4356Z" fill="#FF5F00"/>
<path d="M53.8627 40.0693C53.8605 37.6359 54.4119 35.2338 55.4753 33.045C56.5387 30.8562 58.0861 28.938 60.0004 27.4356C57.6298 25.5723 54.7827 24.4136 51.7847 24.0918C48.7866 23.77 45.7585 24.2982 43.0464 25.616C40.3344 26.9338 38.0478 28.988 36.4481 31.5439C34.8483 34.0997 34 37.0541 34 40.0693C34 43.0845 34.8483 46.0388 36.4481 48.5947C38.0478 51.1506 40.3344 53.2048 43.0464 54.5226C45.7585 55.8404 48.7866 56.3686 51.7847 56.0468C54.7827 55.725 57.6298 54.5662 60.0004 52.7029C58.0861 51.2005 56.5387 49.2823 55.4753 47.0935C54.4119 44.9047 53.8605 42.5027 53.8627 40.0693Z" fill="#EB001B"/>
<path d="M86 40.0693C86.0001 43.0844 85.1519 46.0388 83.5522 48.5946C81.9526 51.1505 79.6661 53.2047 76.9541 54.5225C74.2421 55.8403 71.214 56.3686 68.216 56.0468C65.218 55.725 62.371 54.5662 60.0004 52.7029C61.913 51.199 63.4592 49.2805 64.5224 47.0921C65.5856 44.9036 66.1381 42.5023 66.1381 40.0693C66.1381 37.6362 65.5856 35.2349 64.5224 33.0465C63.4592 30.858 61.913 28.9395 60.0004 27.4356C62.371 25.5723 65.218 24.4135 68.216 24.0918C71.214 23.77 74.2421 24.2982 76.9541 25.616C79.6661 26.9338 81.9526 28.9881 83.5522 31.5439C85.1519 34.0998 86.0001 37.0541 86 40.0693Z" fill="#F79E1B"/>
<path d="M84.4669 50.0267V49.5094H84.6754V49.4041H84.1442V49.5094H84.3529V50.0267H84.4669ZM85.4982 50.0267V49.403H85.3354L85.1481 49.832L84.9607 49.403H84.7978V50.0267H84.9128V49.5563L85.0884 49.9619H85.2077L85.3833 49.5552V50.0267H85.4982Z" fill="#F79E1B"/>
</svg>
