<svg width="90" height="45" viewBox="0 0 90 45" fill="none" xmlns="http://www.w3.org/2000/svg">
<path fill-rule="evenodd" clip-rule="evenodd" d="M78.467 31.6079C79.6819 31.5054 81.0497 31.4151 82.1322 31.2507C82.774 31.2051 83.3943 31.0004 83.9373 30.655C84.8208 29.8342 84.7195 27.2745 84.7045 25.9622C84.7004 25.6427 83.8945 25.6415 83.8725 25.3087C83.7568 23.2826 83.6989 22.584 83.4791 20.5041C83.3882 19.6445 82.6743 18.9412 81.5472 18.5886C78.2882 17.5716 70.4851 16.6246 66.7939 16.4712L65.6228 16.4272L64.4744 16.1742C63.7101 16.294 63.7801 16.1528 63.61 16.9603C63.4631 17.6636 63.098 18.5342 62.1786 18.5776C58.9775 18.7253 55.7768 18.76 52.7105 18.8671C52.387 18.8781 51.9826 18.6853 51.989 18.316L52.0139 16.9209C52.016 16.8833 52.0107 16.8457 51.9983 16.8101C51.9858 16.7746 51.9664 16.7419 51.9413 16.7139C51.9161 16.6859 51.8856 16.6632 51.8516 16.647C51.8176 16.6309 51.7807 16.6217 51.7431 16.6199L50.6774 16.5244C50.5969 16.5267 50.5201 16.5586 50.4617 16.6141C50.4033 16.6695 50.3674 16.7446 50.3609 16.8248L50.1393 18.0405C49.99 18.8659 49.85 19.1015 49.0221 19.1362L35.7631 19.7006C35.6035 19.7076 36.009 18.9591 36.0461 18.3415C36.1086 17.2995 33.1642 17.112 31.9822 17.1884C33.6369 15.8622 37.3924 13.8107 40.6856 12.2055C41.0686 12.0185 41.2965 12.0099 41.0466 11.6162L40.7984 11.2249C40.615 10.9355 40.3818 10.9615 40.085 11.101C35.726 13.0658 31.471 15.2539 27.3369 17.6567C21.5361 18.3047 15.7847 19.3371 10.1206 20.7472C8.3149 21.1953 7.44127 20.9909 6.88642 22.0653C6.44153 23.0208 6.05134 24.0009 5.71773 25.0007C5.27571 25.0372 5.25893 25.1709 5.11891 25.4297C5.01088 25.9457 4.97621 26.4744 5.01592 27.0001C5.02923 27.5547 5.06915 28.3894 5.11717 28.9254C5.21669 30.0536 5.40646 30.6852 5.97866 31.1124C6.36923 31.3698 6.82442 31.5118 7.292 31.5222L9.04158 31.5801C10.1871 31.4186 10.3925 31.5384 10.2728 30.0374C10.2456 29.6959 10.2334 29.3428 10.2334 28.9839C10.2245 27.9515 10.4201 26.9276 10.8088 25.9712C11.1976 25.0148 11.7718 24.1449 12.4983 23.4118C13.2248 22.6786 14.0892 22.0967 15.0417 21.6995C15.9942 21.3024 17.0159 21.0979 18.0478 21.0979C19.0797 21.0979 20.1014 21.3024 21.0539 21.6995C22.0064 22.0967 22.8708 22.6786 23.5973 23.4118C24.3238 24.1449 24.898 25.0148 25.2868 25.9712C25.6755 26.9276 25.8711 27.9515 25.8622 28.9839C25.8673 29.5764 25.8287 30.1684 25.7465 30.7552C25.4381 32.8327 25.7465 32.4831 27.3664 32.4831H60.3348C61.4155 32.2614 61.7997 32.2649 61.6227 30.7575C61.5597 30.1685 61.5311 29.5762 61.537 28.9839C61.537 26.9104 62.3603 24.9218 63.8257 23.4556C65.2911 21.9894 67.2787 21.1657 69.3511 21.1657C71.4235 21.1657 73.4111 21.9894 74.8765 23.4556C76.3419 24.9218 77.1652 26.9104 77.1652 28.9839C77.1652 29.2774 77.1716 29.5674 77.1739 29.8522C77.1854 31.3387 77.256 31.7092 78.4699 31.6055L78.467 31.6079ZM69.3482 22.9712C70.5372 22.9711 71.6994 23.3237 72.6881 23.9845C73.6767 24.6453 74.4473 25.5846 74.9023 26.6836C75.3574 27.7826 75.4765 28.9919 75.2446 30.1586C75.0128 31.3253 74.4403 32.397 73.5996 33.2382C72.759 34.0794 71.6878 34.6523 70.5218 34.8844C69.3557 35.1165 68.147 34.9974 67.0485 34.5422C65.9501 34.087 65.0112 33.3162 64.3506 32.3271C63.6901 31.338 63.3375 30.1752 63.3375 28.9856C63.3374 28.1958 63.4928 27.4137 63.7949 26.684C64.0969 25.9543 64.5396 25.2913 65.0978 24.7328C65.656 24.1743 66.3186 23.7313 67.0479 23.429C67.7772 23.1268 68.5588 22.9712 69.3482 22.9712ZM18.0481 22.9712C19.237 22.9711 20.3993 23.3237 21.3879 23.9845C22.3766 24.6453 23.1471 25.5846 23.6022 26.6836C24.0573 27.7826 24.1764 28.9919 23.9445 30.1586C23.7126 31.3253 23.1402 32.397 22.2995 33.2382C21.4588 34.0794 20.3877 34.6523 19.2216 34.8844C18.0555 35.1165 16.8468 34.9974 15.7484 34.5422C14.6499 34.087 13.7111 33.3162 13.0505 32.3271C12.3899 31.338 12.0374 30.1752 12.0374 28.9856C12.0374 27.3906 12.6706 25.8609 13.7978 24.733C14.9251 23.6051 16.4539 22.9714 18.0481 22.9712Z" fill="black"/>
</svg>
