<svg width="90" height="45" viewBox="0 0 90 45" fill="none" xmlns="http://www.w3.org/2000/svg">
<path fill-rule="evenodd" clip-rule="evenodd" d="M75.9403 32.8526C76.9667 32.7674 78.0772 32.6833 78.9747 32.5501C79.5654 32.5094 80.1365 32.3211 80.6357 32.0025C81.4481 31.2467 81.3549 28.8914 81.3411 27.6839C81.3379 27.3894 80.5958 27.3888 80.5756 27.0826C80.4691 25.221 80.3371 23.6162 80.1343 21.7029C80.0501 20.9114 79.3932 20.2648 78.3567 19.9404C75.212 18.9588 70.5788 18.3313 69.0888 17.8956C68.3221 17.6684 67.5984 17.3157 66.9471 16.8517C64.9324 15.595 62.8483 14.4535 60.7046 13.4326C59.3263 12.8201 58.2413 12.0339 56.3727 12.0339C51.4164 12.0339 45.7223 11.6947 41.1083 13.1615C36.6897 14.5661 32.664 17.1031 28.4727 19.085C23.1354 19.681 17.8436 20.6311 12.6322 21.9288C12.0116 22.0342 11.4251 22.2862 10.9213 22.6639C10.4175 23.0415 10.011 23.534 9.73562 24.1003C9.32626 24.9795 8.96725 25.8813 8.66027 26.8013C8.25354 26.8349 8.23809 26.9579 8.10925 27.196C8.0101 27.6709 7.97821 28.1573 8.0145 28.6411C8.02675 29.1513 8.06348 29.9194 8.10766 30.4126C8.19976 31.4502 8.37385 32.0308 8.90036 32.4244C9.25679 32.6719 9.67546 32.8144 10.1088 32.8356L11.5164 32.8819C13.0853 32.6779 12.9452 32.9597 12.8382 31.2201C12.8228 30.965 12.8159 30.7125 12.8159 30.4659C12.8159 28.558 13.5734 26.7282 14.9218 25.3791C16.2702 24.03 18.099 23.2721 20.006 23.2721C21.9129 23.2721 23.7417 24.03 25.0901 25.3791C26.4386 26.7282 27.1961 28.558 27.1961 30.4659C27.2037 31.1166 27.1502 31.7666 27.0363 32.4074C26.7403 33.9653 26.5801 33.6447 28.1767 33.7565L58.8807 33.7224C60.4246 33.5328 60.2766 33.7885 60.087 31.985C60.0384 31.4801 60.0162 30.9731 60.0205 30.4659C60.0368 28.5686 60.8016 26.7546 62.1483 25.4188C63.4949 24.0829 65.3145 23.3334 67.2109 23.3334C69.1072 23.3334 70.9268 24.0829 72.2735 25.4188C73.6202 26.7546 74.3849 28.5686 74.4012 30.4659C74.4012 30.8387 74.4119 31.2009 74.4092 31.5562C74.3991 33.0913 74.6392 32.9608 75.9413 32.8526H75.9403ZM52.6925 19.4749C53.078 16.3121 53.2531 15.1339 53.4054 14.2508C53.4724 13.8646 53.5443 13.6596 54.0202 13.6489L55.1121 13.6239C55.9043 13.6058 59.7149 16.1331 61.2375 17.7151C62.1175 18.6296 62.4757 19.9165 60.5321 20.0054L53.7056 20.325C52.6068 20.3783 52.5717 20.4677 52.6941 19.4754L52.6925 19.4749ZM36.2271 20.9663C36.0796 20.9727 36.4528 20.284 36.4869 19.7157C36.5444 18.7569 34.7902 18.6845 33.7026 18.7569C36.1717 16.9832 38.8777 15.5656 41.7413 14.5459C43.5458 14.0859 45.3941 13.8195 47.255 13.7512L51.146 13.6255C51.5767 13.6201 51.5607 13.8012 51.5069 14.1581C51.3137 15.4519 50.9496 17.7928 50.6578 19.4083C50.5146 20.2014 50.3453 20.3671 49.5313 20.4006L36.2223 20.9668L36.2271 20.9663ZM67.2106 24.9328C68.3045 24.9328 69.3738 25.2574 70.2833 25.8654C71.1928 26.4735 71.9017 27.3377 72.3203 28.3488C72.7389 29.3599 72.8484 30.4726 72.635 31.546C72.4216 32.6194 71.8949 33.6054 71.1214 34.3792C70.3479 35.1531 69.3624 35.6802 68.2896 35.8937C67.2167 36.1072 66.1047 35.9976 65.0941 35.5788C64.0835 35.16 63.2197 34.4507 62.612 33.5407C62.0042 32.6307 61.6799 31.5609 61.6799 30.4664C61.6798 29.7397 61.8228 29.0202 62.1007 28.3488C62.3786 27.6774 62.7859 27.0673 63.2994 26.5534C63.8129 26.0395 64.4226 25.6319 65.0936 25.3537C65.7646 25.0756 66.4837 24.9324 67.2101 24.9323L67.2106 24.9328ZM20.0065 24.9328C21.1004 24.9328 22.1697 25.2574 23.0792 25.8654C23.9887 26.4735 24.6976 27.3377 25.1162 28.3488C25.5348 29.3599 25.6444 30.4726 25.431 31.546C25.2176 32.6194 24.6908 33.6054 23.9173 34.3792C23.1438 35.1531 22.1584 35.6802 21.0855 35.8937C20.0126 36.1072 18.9006 35.9976 17.89 35.5788C16.8794 35.16 16.0156 34.4507 15.4079 33.5407C14.8002 32.6307 14.4758 31.5609 14.4758 30.4664C14.4758 28.9988 15.0585 27.5913 16.0957 26.5536C17.1329 25.5158 18.5397 24.9328 20.0065 24.9328Z" fill="black"/>
</svg>
