<svg width="90" height="45" viewBox="0 0 90 45" fill="none" xmlns="http://www.w3.org/2000/svg">
<path fill-rule="evenodd" clip-rule="evenodd" d="M76.758 33.826C77.3424 33.7755 77.9069 33.5862 78.4062 33.2733C79.2123 32.5116 78.9683 30.1358 78.9556 28.9187C78.9524 28.6222 78.216 28.62 78.196 28.3122C78.0903 26.4355 77.2932 22.9865 77.0919 21.0581C77.0439 20.5593 76.8756 20.0802 76.6018 19.6634C76.328 19.2466 75.9573 18.905 75.5224 18.6689C74.0998 17.7751 70.0285 15.3386 68.4817 14.6779C67.4611 14.2428 67.7099 14.1381 66.6143 13.9796C61.1732 13.1857 49.2745 12.2479 43.9427 13.9705C39.5581 15.387 35.7409 17.441 31.7816 19.9441C24.7778 21.172 19.0625 22.2146 15.6605 23.1449C15.047 23.2674 14.4699 23.5337 13.9753 23.9226C13.4807 24.3115 13.082 24.8124 12.811 25.3853C12.259 26.472 11.997 27.1085 11.7439 27.7257C11.138 27.7794 10.9917 28.345 11.0044 29.1131C11.0218 30.319 10.9114 31.179 11.2416 32.3736C11.3678 32.7938 11.6261 33.1603 11.9769 33.4169C12.3277 33.6735 12.7515 33.8061 13.1835 33.7943L14.8887 33.848C15.7165 33.6869 15.9706 33.7342 15.8998 32.6089C15.8755 32.2226 15.8697 31.8262 15.8697 31.4185C15.8697 29.4945 16.6214 27.6492 17.9594 26.2887C19.2974 24.9282 21.1122 24.1639 23.0044 24.1639C24.8967 24.1639 26.7114 24.9282 28.0495 26.2887C29.3875 27.6492 30.1392 29.4945 30.1392 31.4185C30.1392 31.9788 30.1392 32.524 30.1022 33.0477C29.9791 34.8337 29.4324 34.6484 31.1196 34.737L59.7912 34.7048C61.0173 34.5528 61.3459 34.7048 61.1758 33.0101C61.1286 32.4813 61.1077 31.9505 61.1129 31.4196C61.1291 29.5063 61.888 27.677 63.2243 26.3298C64.5606 24.9827 66.3662 24.2268 68.2479 24.2268C70.1297 24.2268 71.9353 24.9827 73.2716 26.3298C74.6079 27.677 75.3668 29.5063 75.3829 31.4196C75.3829 31.78 75.3829 32.1319 75.3708 32.4735C75.3254 33.8497 75.0269 34.1279 76.7596 33.826H76.758ZM53.9095 20.5516C54.349 16.8926 54.4029 15.8328 54.741 14.9438C54.8032 14.8287 54.8906 14.7297 54.9965 14.6545C55.1024 14.5794 55.224 14.53 55.3517 14.5103C57.9402 14.6366 60.825 14.592 63.3332 15.1834C64.2244 15.4369 66.0485 17.5468 66.5028 18.1822C66.6793 18.4272 67.9894 19.9747 67.7786 20.2938C67.7079 20.4127 67.6073 20.5103 67.4871 20.5764C67.3669 20.6425 67.2316 20.6747 67.095 20.6698C63.1943 20.8019 58.8393 21.2209 54.9449 21.2687C53.853 21.2821 53.7885 21.5534 53.909 20.5521L53.9095 20.5516ZM39.0985 21.8407C39.2299 21.4313 39.3164 21.0083 39.3563 20.5795C39.4134 19.6127 37.3236 19.5396 36.2443 19.6127C38.82 17.8225 41.6215 16.394 44.573 15.366C46.8656 14.5855 49.9518 14.5673 52.4087 14.5136C52.8356 14.5093 52.8208 14.6914 52.7669 15.0507C52.5952 16.1991 52.1768 18.6796 51.9217 20.3453C51.7996 21.151 51.6126 21.3401 50.8044 21.3466C47.6131 21.374 39.0573 21.9965 39.0964 21.8413L39.0985 21.8407ZM68.2445 25.8392C69.33 25.8392 70.391 26.1665 71.2936 26.7797C72.1961 27.3929 72.8995 28.2644 73.3149 29.2841C73.7303 30.3038 73.839 31.4258 73.6272 32.5083C73.4154 33.5908 72.8927 34.5851 72.1252 35.3655C71.3577 36.146 70.3798 36.6775 69.3152 36.8928C68.2506 37.1081 67.1471 36.9976 66.1443 36.5752C65.1415 36.1529 64.2843 35.4376 63.6813 34.5199C63.0782 33.6022 62.7564 32.5233 62.7564 31.4196C62.7563 30.6868 62.8982 29.9611 63.174 29.284C63.4498 28.6069 63.854 27.9917 64.3636 27.4735C64.8733 26.9553 65.4783 26.5443 66.1442 26.2639C66.8101 25.9835 67.5238 25.8392 68.2445 25.8392ZM23.0002 25.8392C24.0857 25.8392 25.1467 26.1665 26.0493 26.7797C26.9518 27.3929 27.6552 28.2644 28.0706 29.2841C28.486 30.3038 28.5947 31.4258 28.3829 32.5083C28.1711 33.5908 27.6484 34.5851 26.8809 35.3655C26.1134 36.146 25.1355 36.6775 24.0709 36.8928C23.0063 37.1081 21.9028 36.9976 20.9 36.5752C19.8972 36.1529 19.04 35.4376 18.437 34.5199C17.8339 33.6022 17.5121 32.5233 17.5121 31.4196C17.5121 29.9396 18.0903 28.5202 19.1195 27.4737C20.1487 26.4272 21.5447 25.8392 23.0002 25.8392Z" fill="black"/>
</svg>
