<svg width="90" height="45" viewBox="0 0 90 45" fill="none" xmlns="http://www.w3.org/2000/svg">
<path fill-rule="evenodd" clip-rule="evenodd" d="M66.8479 25.8548C67.9274 25.8546 68.9826 26.1814 69.8803 26.7936C70.7779 27.4059 71.4775 28.2762 71.8906 29.2945C72.3038 30.3127 72.412 31.4332 72.2014 32.5142C71.9909 33.5952 71.4711 34.5882 70.7079 35.3676C69.9446 36.147 68.9721 36.6778 67.9134 36.8929C66.8546 37.1079 65.7572 36.9976 64.7599 36.5759C63.7626 36.1541 62.9102 35.4398 62.3104 34.5234C61.7107 33.607 61.3906 32.5296 61.3906 31.4274C61.3906 29.9495 61.9655 28.5322 62.989 27.4871C64.0124 26.4421 65.4005 25.8549 66.8479 25.8548ZM61.7741 15.9743L61.41 20.8325C62.4791 20.7745 63.5114 20.7252 64.4702 20.6919C64.6061 20.697 64.7408 20.6649 64.8604 20.5988C64.9801 20.5328 65.0802 20.4353 65.1505 20.3165C65.4132 19.8709 65.6338 19.4009 65.8093 18.9127C65.8981 18.6445 65.8792 18.5222 65.6543 18.2079C65.3533 17.7879 63.3501 16.7205 61.7741 15.9738V15.9743ZM60.5989 20.877L61.0465 15.6385C60.6983 15.4752 60.3414 15.3319 59.9774 15.2094C58.7556 14.8304 57.4889 14.6228 56.2123 14.592L52.04 14.5384C51.9279 14.5336 51.8163 14.5566 51.7148 14.6055C51.6134 14.6543 51.525 14.7276 51.4573 14.8189C51.1211 15.7072 51.0429 16.9168 50.6058 20.5707C50.486 21.5711 50.5501 21.3002 51.6365 21.2863C54.3126 21.2535 57.565 21.0438 60.5989 20.8738V20.877ZM75.3013 33.8932C76.4087 33.8063 77.6653 33.7001 78.6545 33.5263C79.2358 33.4763 79.7973 33.2872 80.2936 32.9743C81.0958 32.2137 81.0039 29.8418 80.9897 28.6258C80.9865 28.3292 80.2542 28.3286 80.2348 28.0202C80.1297 26.1455 79.9994 24.0702 79.7987 22.144C79.5581 19.8316 74.913 19.7463 72.0688 18.8269C70.0452 18.1725 68.3782 16.7703 65.7788 15.5967C62.9162 14.304 60.4177 13.1186 57.408 13.1186C52.517 13.1186 45.2472 12.5232 40.6941 14.0009C36.3337 15.4154 32.361 17.9703 28.2255 19.9662C22.9582 20.5661 17.7358 21.5228 12.5928 22.83C11.9804 22.9363 11.4016 23.1901 10.9045 23.5704C10.4074 23.9507 10.0062 24.4466 9.73436 25.0169C9.3303 25.9022 8.97615 26.8104 8.67368 27.737C8.27179 27.7702 8.25656 27.6662 8.12943 27.9059C8.04084 28.231 8.01093 28.5698 8.04117 28.9058C7.94987 29.9106 8.01064 30.9237 8.22136 31.9096C8.30983 32.4894 8.59824 33.0178 9.0346 33.3997C9.34002 33.6477 9.71349 33.7924 10.1032 33.8138L11.9603 33.8755C13.0687 33.6674 12.8596 33.522 12.7892 32.0823C12.7787 31.8678 12.7737 31.6494 12.774 31.4274C12.774 29.506 13.5216 27.6633 14.8522 26.3047C16.1828 24.9461 17.9875 24.1828 19.8693 24.1828C21.7511 24.1828 23.5559 24.9461 24.8865 26.3047C26.2171 27.6633 26.9647 29.506 26.9647 31.4274C26.9647 31.834 26.9568 32.232 26.93 32.6219C26.7635 35.0491 26.5423 34.6302 28.6978 34.7402L58.4676 34.7069C60.052 34.4838 59.9622 34.6871 59.7962 32.6546C59.7636 32.2556 59.7526 31.8452 59.7526 31.4274C59.7687 29.5167 60.5233 27.6899 61.8523 26.3447C63.1812 24.9994 64.9768 24.2446 66.8482 24.2446C68.7195 24.2446 70.5151 24.9994 71.844 26.3447C73.173 27.6899 73.9276 29.5167 73.9437 31.4274C73.9437 31.7707 73.9343 32.1118 73.9086 32.4465C73.7814 34.1094 74.2374 33.9736 75.3013 33.8905V33.8932ZM35.8766 21.8602C36.0072 21.4513 36.0932 21.0289 36.133 20.6008C36.1897 19.6352 34.4593 19.5623 33.386 19.6352C35.8225 17.8489 38.4929 16.4212 41.3187 15.394C43.0973 14.9209 44.9221 14.6526 46.7592 14.5942L49.1106 14.5405C49.5351 14.5357 49.5913 14.7374 49.4668 15.0769C49.0465 16.2238 48.8805 18.7008 48.6263 20.3642C48.5044 21.1688 48.3184 21.3571 47.5146 21.364C44.341 21.3909 35.8325 22.0131 35.8714 21.8581L35.8766 21.8602ZM19.8704 25.8548C20.9498 25.8548 22.0051 26.1816 22.9026 26.7939C23.8001 27.4062 24.4997 28.2766 24.9128 29.2948C25.3259 30.3131 25.4339 31.4336 25.2233 32.5145C25.0127 33.5955 24.4929 34.5885 23.7296 35.3678C22.9664 36.1472 21.9939 36.6779 20.9352 36.8929C19.8764 37.1079 18.7791 36.9976 17.7818 36.5758C16.7845 36.154 15.9321 35.4398 15.3324 34.5234C14.7327 33.6069 14.4126 32.5295 14.4126 31.4274C14.4126 29.9494 14.9876 28.532 16.0111 27.4869C17.0347 26.4419 18.4229 25.8548 19.8704 25.8548Z" fill="black"/>
</svg>
