<svg width="90" height="45" viewBox="0 0 90 45" fill="none" xmlns="http://www.w3.org/2000/svg">
<path fill-rule="evenodd" clip-rule="evenodd" d="M78.8306 31.4489C78.8843 31.4331 78.9389 31.4204 78.9941 31.4108C79.9862 31.2406 80.4275 31.352 80.5857 30.0724C80.7786 28.5386 80.7077 26.1276 80.7859 25.1793C80.8394 24.5263 80.7429 23.9137 80.0441 23.7681C79.6524 23.6861 79.2468 23.6046 79.2372 23.4377C79.143 21.452 78.8084 19.4851 78.2407 17.58C77.3886 14.6699 76.2563 11.8493 74.8597 9.15786C73.9713 7.42491 74.3017 7.518 72.0396 7.518C63.9001 7.51414 55.3164 7.44516 48.9822 7.60577C43.4582 7.71285 40.9623 7.75047 38.6607 8.47973C35.6795 10.1292 32.8826 14.1826 30.7898 15.8422C25.4125 16.4128 19.5037 16.8199 14.0584 18.1708C12.1373 18.6469 11.5103 18.7125 11.1433 20.7044C10.9267 21.8813 10.8881 23.1705 10.7444 23.8631C10.6379 23.871 10.5309 23.873 10.4242 23.8689C10.1391 23.8626 10.0735 24.1906 10.0629 24.52C9.96181 26.2822 9.98259 28.0492 10.1251 29.8086C10.2987 31.051 11.0174 31.4455 12.1026 31.4455H14.0743C15.6225 31.4455 15.3466 31.3037 15.4542 29.8235C15.6037 27.798 16.5134 25.9039 18.0008 24.521C19.4882 23.138 21.4434 22.3684 23.4744 22.3664C25.5054 22.3645 27.4621 23.1303 28.9521 24.5104C30.4422 25.8905 31.3555 27.7829 31.5089 29.8081C31.629 31.4181 31.3006 31.4455 32.9472 31.4455H59.8245C61.7056 31.4455 61.3366 31.3394 61.5421 29.5071C61.7679 27.5236 62.7226 25.6948 64.2209 24.3756C65.7191 23.0564 67.6541 22.341 69.6502 22.3682C71.6463 22.3953 73.5611 23.1632 75.023 24.5226C76.4848 25.8821 77.3894 27.7362 77.5611 29.7251C77.6393 30.6497 77.3875 31.4455 78.327 31.4455L78.8306 31.4489ZM23.4871 23.9981C24.7571 23.998 25.9986 24.3746 27.0546 25.08C28.1106 25.7855 28.9336 26.7883 29.4197 27.9616C29.9058 29.1349 30.033 30.426 29.7853 31.6716C29.5376 32.9172 28.9261 34.0613 28.0281 34.9594C27.1301 35.8574 25.986 36.469 24.7404 36.7168C23.4949 36.9646 22.2038 36.8375 21.0305 36.3515C19.8572 35.8655 18.8543 35.0425 18.1487 33.9866C17.4432 32.9306 17.0666 31.6892 17.0666 30.4192C17.0666 28.7163 17.743 27.0832 18.9471 25.879C20.1511 24.6748 21.7842 23.9983 23.4871 23.9981ZM69.5456 23.9981C70.8156 23.998 72.057 24.3746 73.113 25.08C74.169 25.7855 74.9921 26.7883 75.4782 27.9616C75.9642 29.1349 76.0915 30.426 75.8438 31.6716C75.5961 32.9172 74.9845 34.0613 74.0866 34.9594C73.1886 35.8574 72.0445 36.469 70.7989 36.7168C69.5533 36.9646 68.2623 36.8375 67.0889 36.3515C65.9156 35.8655 64.9128 35.0425 64.2072 33.9866C63.5016 32.9306 63.125 31.6892 63.125 30.4192C63.1252 28.7163 63.8016 27.0833 65.0057 25.8791C66.2097 24.675 67.8427 23.9984 69.5456 23.9981ZM37.1428 16.9289C37.3188 16.5394 37.4336 16.125 37.4829 15.7004C37.5441 14.6832 35.6843 14.6075 34.5316 14.6823C35.8414 12.8942 37.4029 11.3049 39.1676 9.9638C40.2123 9.61413 43.3878 9.42024 45.3523 9.37876L47.8781 9.32522C48.3344 9.31943 48.3947 9.53165 48.2611 9.89049C48.0359 11.1445 47.6307 13.7037 47.3602 15.4535C47.2299 16.2985 47.0298 16.7876 46.1664 16.7731C42.7569 16.9583 37.1014 17.2178 37.1428 16.9289ZM60.8823 15.5731C60.7303 14.0857 59.9591 11.8159 59.4836 10.3072C59.3056 9.74435 59.1045 9.18149 58.4615 9.19789C55.2064 9.2905 54.2196 9.23214 51.0223 9.32378C50.9018 9.31833 50.7817 9.34231 50.6724 9.39366C50.5632 9.445 50.4681 9.52215 50.3953 9.61847C50.0341 10.5532 49.9497 11.826 49.479 15.671C49.3502 16.7229 49.4187 16.8662 50.5859 16.8522C53.1421 16.8522 56.0659 16.8729 59.5742 16.7741C60.6262 16.7446 61.0101 16.8556 60.8794 15.5717L60.8823 15.5731ZM65.3442 15.6913C64.7943 14.5082 63.9257 12.4559 63.1106 10.6072C62.6389 9.53696 62.6215 9.20079 63.8586 9.18101C66.3035 9.14243 70.9612 9.19838 72.7462 9.22924C73.0174 9.2798 73.2649 9.41706 73.4514 9.6204C73.9448 10.5551 74.4232 11.5067 75.8098 15.3517C76.1889 16.4036 76.0028 16.7881 75.2571 16.7736C73.5777 16.7417 69.3729 16.7798 66.8876 16.776C66.5496 16.7778 66.2194 16.6744 65.9429 16.4801C65.6663 16.2858 65.4571 16.0098 65.3442 15.6913Z" fill="black"/>
</svg>
