<svg width="90" height="45" viewBox="0 0 90 45" fill="none" xmlns="http://www.w3.org/2000/svg">
<path fill-rule="evenodd" clip-rule="evenodd" d="M74.6616 34.7535C75.8746 34.646 77.5416 34.5291 78.7749 34.2923C79.3338 34.2371 79.8692 34.0394 80.33 33.7182C81.0905 32.9256 81.0034 30.4627 80.9905 29.1985C80.9871 28.8904 80.2627 28.8899 80.2741 28.5689C80.2533 21.9944 80.1691 17.5778 79.8181 9.42703C79.7678 9.04697 79.5812 8.69813 79.293 8.44545C79.0049 8.19276 78.6348 8.05342 78.2516 8.05338C77.3604 7.97561 76.4994 8.00385 74.4813 8.01029L33.8384 8.20844C30.9856 8.22478 28.9972 8.30007 26.5831 10.0284C24.1125 11.7964 22.2959 15.5091 21.2265 17.6035C18.8747 18.4293 15.2773 19.5003 11.9853 20.6817C11.1674 20.9759 10.4411 21.1463 10.3019 22.1391C10.2016 23.1827 10.1623 24.2314 10.1841 25.2797C10.1841 26.6256 10.2683 27.5816 10.1163 28.023C10.0024 28.3519 9.29243 28.0998 9.12261 28.45C9.0383 28.7899 9.01003 29.1413 9.03893 29.4903C8.95257 30.5335 9.01005 31.5836 9.20974 32.6111C9.41967 33.4467 9.61226 33.8495 9.98112 34.1596C10.2607 34.4134 10.6179 34.5651 10.9946 34.59L13.0914 34.6663C14.0212 34.591 13.7142 34.4419 13.5756 33.2793C13.5433 33.012 13.5268 32.7431 13.5261 32.4738C13.5271 31.5156 13.7326 30.5686 14.1287 29.6962C14.5248 28.8238 15.1025 28.046 15.8231 27.4148C16.5437 26.7836 17.3907 26.3136 18.3074 26.0361C19.2241 25.7587 20.1895 25.6802 21.139 25.8059C22.0884 25.9316 23.0001 26.2586 23.8132 26.7651C24.6262 27.2715 25.3218 27.9458 25.8536 28.7428C26.3853 29.5398 26.7409 30.4411 26.8966 31.3866C27.0523 32.3321 27.0045 33.2999 26.7564 34.2255C26.4331 35.4292 26.3959 35.555 27.757 35.5535L60.2752 35.5174C60.7995 35.5174 61.0906 35.506 61.1986 35.3549C61.3065 35.2038 61.2332 34.8253 61.0649 34.1804C60.8058 33.1882 60.7767 32.15 60.9797 31.1448C61.1826 30.1397 61.6124 29.1942 62.2361 28.3805C62.8598 27.5668 63.661 26.9063 64.5786 26.4495C65.4962 25.9927 66.506 25.7516 67.5309 25.7446C68.5558 25.7376 69.5688 25.9649 70.4925 26.4091C71.4163 26.8533 72.2264 27.5027 72.8612 28.3079C73.496 29.113 73.9386 30.0525 74.1553 31.0548C74.3719 32.0571 74.357 33.0956 74.1115 34.0912C73.9951 34.5628 74.1714 34.7961 74.6621 34.7525L74.6616 34.7535ZM25.78 19.0609C25.9045 18.6337 25.9859 18.1951 26.0231 17.7516C26.0766 16.7475 24.4977 17.3003 23.4798 17.3742C24.3214 15.6865 25.5043 13.3122 26.9732 11.7765C28.3853 10.3004 29.9498 10.0393 31.9684 10.0304L35.2559 10.016C35.6589 10.0106 35.8079 10.2107 35.755 10.5827C35.5772 11.8266 35.3911 15.1401 35.0173 16.8664C34.839 17.6897 34.3355 17.8918 33.5864 18.032C30.5766 18.5928 25.7434 19.2238 25.78 19.0628V19.0609ZM20.2556 27.2953C21.2795 27.2953 22.2804 27.5991 23.1317 28.1682C23.983 28.7374 24.6466 29.5463 25.0384 30.4927C25.4302 31.4392 25.5327 32.4806 25.333 33.4853C25.1332 34.49 24.6402 35.4129 23.9162 36.1373C23.1922 36.8617 22.2698 37.355 21.2656 37.5548C20.2614 37.7547 19.2205 37.6521 18.2745 37.2601C17.3286 36.8681 16.52 36.2042 15.9512 35.3524C15.3824 34.5007 15.0788 33.4993 15.0788 32.4748C15.0788 31.1011 15.6242 29.7837 16.595 28.8124C17.5659 27.841 18.8826 27.2953 20.2556 27.2953ZM67.5454 27.2953C68.5693 27.2953 69.5701 27.5991 70.4215 28.1682C71.2728 28.7374 71.9363 29.5463 72.3281 30.4927C72.72 31.4392 72.8225 32.4806 72.6228 33.4853C72.423 34.49 71.9299 35.4129 71.206 36.1373C70.482 36.8617 69.5595 37.355 68.5553 37.5548C67.5511 37.7547 66.5102 37.6521 65.5643 37.2601C64.6183 36.8681 63.8098 36.2042 63.241 35.3524C62.6721 34.5007 62.3685 33.4993 62.3685 32.4748C62.3685 31.1011 62.9139 29.7837 63.8848 28.8124C64.8556 27.841 66.1724 27.2953 67.5454 27.2953Z" fill="black"/>
</svg>
