<svg width="50" height="30.74" viewBox="0 0 193 83" fill="none" xmlns="http://www.w3.org/2000/svg">
                       <path fill-rule="evenodd" clip-rule="evenodd" d="M144.284 57.2296C144.38 57.2012 144.478 57.1785 144.577 57.1612C146.358 56.8558 147.151 57.0557 147.435 54.7597C147.781 52.0077 147.654 47.6815 147.794 45.9801C147.89 44.8083 147.717 43.7093 146.462 43.4479C145.759 43.3008 145.031 43.1545 145.014 42.8551C144.845 39.2922 144.244 35.7629 143.224 32.3446C141.694 27.1231 139.662 22.0621 137.154 17.2328C135.559 14.1233 136.152 14.2903 132.091 14.2903C117.477 14.2834 102.066 14.1597 87.2293 14.4478C77.3116 14.64 67.6345 14.7075 63.5022 16.016C58.1498 18.9757 53.1281 26.2487 49.3707 29.2265C39.7162 30.2503 29.1074 30.9807 19.3308 33.4048C15.8817 34.2589 14.756 34.3766 14.097 37.9508C13.7081 40.0624 13.6389 42.3756 13.3808 43.6184C13.1895 43.6326 12.9976 43.636 12.8059 43.6288C12.2941 43.6175 12.1763 44.206 12.1572 44.7971C11.9757 47.959 12.013 51.1296 12.2689 54.2863C12.5807 56.5156 13.871 57.2236 15.8194 57.2236H19.3594C22.1391 57.2236 21.6437 56.9691 21.8369 54.3132C22.1053 50.6788 23.7386 47.2802 26.4091 44.7988C29.0796 42.3173 32.59 40.9364 36.2364 40.9329C39.883 40.9294 43.3961 42.3036 46.0713 44.7799C48.7466 47.2562 50.3863 50.6517 50.6618 54.2855C50.8775 57.1742 50.2878 57.2236 53.2441 57.2236H110.16C113.537 57.2236 112.875 57.0332 113.243 53.7455C113.649 50.1865 115.363 46.9051 118.053 44.5381C120.743 42.171 124.217 40.8872 127.801 40.936C131.385 40.9848 134.823 42.3625 137.448 44.8018C140.072 47.2411 141.696 50.5679 142.004 54.1366C142.145 55.7956 141.693 57.2236 143.379 57.2236L144.284 57.2296ZM36.2593 43.8607C38.5395 43.8605 40.7684 44.5361 42.6644 45.8019C44.5603 47.0678 46.0381 48.8671 46.9108 50.9723C47.7835 53.0775 48.0119 55.3942 47.5672 57.6291C47.1224 59.864 46.0246 61.917 44.4123 63.5284C42.8 65.1398 40.7459 66.2371 38.5096 66.6818C36.2733 67.1264 33.9553 66.8983 31.8487 66.0263C29.7421 65.1543 27.9415 63.6776 26.6747 61.7829C25.4079 59.8883 24.7317 57.6607 24.7317 55.382C24.7317 52.3264 25.9462 49.3961 28.108 47.2355C30.2699 45.0749 33.202 43.8609 36.2593 43.8607ZM127.613 43.8607C129.893 43.8605 132.122 44.5361 134.019 45.8019C135.914 47.0678 137.392 48.8671 138.264 50.9723C139.137 53.0775 139.366 55.3942 138.921 57.6291C138.476 59.864 137.378 61.917 135.766 63.5284C134.154 65.1398 132.1 66.2371 129.864 66.6818C127.627 67.1264 125.309 66.8983 123.203 66.0263C121.096 65.1543 119.296 63.6776 118.029 61.7829C116.762 59.8883 116.086 57.6607 116.086 55.382C116.086 52.3265 117.3 49.3963 119.462 47.2357C121.624 45.0751 124.555 43.8611 127.613 43.8607ZM60.7771 31.1763C61.093 30.4774 61.299 29.7339 61.3875 28.9721C61.4975 27.147 58.1584 27.0111 56.0888 27.1452C58.4404 23.9369 61.2439 21.0852 64.4123 18.6789C66.288 18.0514 77.1851 17.7035 80.7122 17.6291L85.2472 17.533C86.0664 17.5227 86.1746 17.9034 85.9347 18.5473C85.5303 20.7974 84.8029 25.3893 84.3171 28.529C84.0833 30.0452 83.724 30.9228 82.1739 30.8968C76.0525 31.2291 60.7026 31.6947 60.7771 31.1763ZM112.059 28.7436C111.786 26.0747 110.401 22.002 109.548 19.295C109.228 18.2851 108.867 17.2752 107.713 17.3046C101.868 17.4707 96.6327 17.366 90.8923 17.5305C90.6758 17.5207 90.4602 17.5637 90.2641 17.6558C90.0679 17.748 89.8972 17.8864 89.7666 18.0592C89.118 19.7364 88.9664 22.0202 88.1213 28.9193C87.8901 30.8068 88.013 31.0638 90.1086 31.0387C94.6982 31.0387 103.411 31.0759 109.71 30.8985C111.599 30.8457 112.288 31.0448 112.054 28.741L112.059 28.7436ZM120.07 28.9557C119.083 26.8328 117.523 23.1505 116.06 19.8333C115.213 17.913 115.181 17.3098 117.403 17.2743C121.792 17.2051 130.155 17.3055 133.36 17.3608C133.846 17.4515 134.29 17.6978 134.626 18.0627C135.511 19.7399 136.37 21.4473 138.86 28.3464C139.541 30.2339 139.206 30.9236 137.868 30.8977C134.852 30.8405 127.303 30.9089 122.841 30.902C122.234 30.9052 121.641 30.7196 121.144 30.3711C120.648 30.0225 120.272 29.5272 120.07 28.9557Z" fill="#73818F"/>
                       <g clip-path="url(#clip0_2_73)">
                           <path fill-rule="evenodd" clip-rule="evenodd" d="M155.292 65.153C156.398 65.0589 157.467 64.7064 158.412 64.124C159.938 62.706 159.476 58.283 159.452 56.017C159.446 55.465 158.052 55.461 158.014 54.888C157.814 51.394 156.305 44.973 155.924 41.383C155.833 40.4543 155.515 39.5624 154.996 38.7864C154.478 38.0105 153.776 37.3745 152.953 36.935C150.26 35.271 142.553 30.735 139.625 29.505C137.693 28.695 138.164 28.5 136.09 28.205C125.79 26.727 103.266 24.981 93.173 28.188C84.873 30.825 77.647 34.649 70.152 39.309C56.894 41.595 46.075 43.536 39.635 45.268C38.4736 45.4961 37.3813 45.9918 36.4449 46.7158C35.5086 47.4399 34.754 48.3723 34.241 49.439C33.196 51.462 32.7 52.647 32.221 53.796C31.074 53.896 30.797 54.949 30.821 56.379C30.854 58.624 30.645 60.225 31.27 62.449C31.509 63.2313 31.998 63.9136 32.662 64.3913C33.326 64.8691 34.1283 65.1159 34.946 65.094L38.174 65.194C39.741 64.894 40.222 64.982 40.088 62.887C40.042 62.168 40.031 61.43 40.031 60.671C40.031 57.089 41.4539 53.6537 43.9868 51.1208C46.5197 48.5879 49.955 47.165 53.537 47.165C57.119 47.165 60.5543 48.5879 63.0872 51.1208C65.62 53.6537 67.043 57.089 67.043 60.671C67.043 61.714 67.043 62.729 66.973 63.704C66.74 67.029 65.705 66.684 68.899 66.849L123.174 66.789C125.495 66.506 126.117 66.789 125.795 63.634C125.706 62.6496 125.666 61.6614 125.676 60.673C125.707 57.111 127.143 53.7053 129.673 51.1973C132.202 48.6894 135.62 47.2822 139.182 47.2822C142.745 47.2822 146.163 48.6894 148.692 51.1973C151.222 53.7053 152.658 57.111 152.689 60.673C152.689 61.344 152.689 61.999 152.666 62.635C152.58 65.197 152.015 65.715 155.295 65.153H155.292ZM112.04 40.44C112.872 33.628 112.974 31.655 113.614 30C113.732 29.7857 113.897 29.6014 114.098 29.4614C114.298 29.3215 114.528 29.2296 114.77 29.193C119.67 29.428 125.131 29.345 129.879 30.446C131.566 30.918 135.019 34.846 135.879 36.029C136.213 36.485 138.693 39.366 138.294 39.96C138.16 40.1814 137.97 40.3631 137.742 40.4861C137.515 40.6092 137.258 40.6692 137 40.66C129.616 40.906 121.372 41.686 114 41.775C111.933 41.8 111.811 42.305 112.039 40.441L112.04 40.44ZM84.003 42.84C84.2517 42.0777 84.4154 41.2902 84.491 40.492C84.599 38.692 80.643 38.556 78.6 38.692C83.4756 35.3592 88.7788 32.6998 94.366 30.786C98.706 29.333 104.548 29.299 109.199 29.199C110.007 29.191 109.979 29.53 109.877 30.199C109.552 32.337 108.76 36.955 108.277 40.056C108.046 41.556 107.692 41.908 106.162 41.92C100.121 41.971 83.925 43.13 83.999 42.841L84.003 42.84ZM139.176 50.284C141.231 50.284 143.239 50.8933 144.948 52.0349C146.656 53.1764 147.988 54.7989 148.774 56.6973C149.56 58.5956 149.766 60.6845 149.365 62.6998C148.965 64.715 147.975 66.5662 146.522 68.0191C145.069 69.472 143.218 70.4615 141.203 70.8624C139.188 71.2632 137.099 71.0575 135.2 70.2712C133.302 69.4849 131.679 68.1533 130.538 66.4448C129.396 64.7363 128.787 62.7277 128.787 60.673C128.787 59.3087 129.055 57.9576 129.577 56.6971C130.1 55.4366 130.865 54.2913 131.83 53.3266C132.794 52.3618 133.94 51.5966 135.2 51.0745C136.461 50.5525 137.812 50.2839 139.176 50.284ZM53.529 50.284C55.5837 50.284 57.5923 50.8933 59.3008 52.0349C61.0093 53.1764 62.3408 54.7989 63.1272 56.6973C63.9135 58.5956 64.1192 60.6845 63.7184 62.6998C63.3175 64.715 62.328 66.5662 60.8751 68.0191C59.4222 69.472 57.571 70.4615 55.5558 70.8624C53.5405 71.2632 51.4516 71.0575 49.5533 70.2712C47.6549 69.4849 46.0324 68.1533 44.8909 66.4448C43.7493 64.7363 43.14 62.7277 43.14 60.673C43.14 57.9177 44.2345 55.2752 46.1829 53.3269C48.1312 51.3785 50.7736 50.284 53.529 50.284Z" fill="#B6C1CC"/>
                       </g>
                       <g clip-path="url(#clip1_2_73)">
                           <path fill-rule="evenodd" clip-rule="evenodd" d="M181.657 76.985C183.757 76.808 186.121 76.652 187.992 76.368C189.101 76.2892 190.174 75.9356 191.112 75.339C192.639 73.921 192.464 69.499 192.438 67.232C192.431 66.68 191.038 66.678 191 66.103C190.8 62.603 190.7 61.396 190.32 57.803C190.163 56.318 188.929 55.103 186.981 54.494C181.348 52.737 167.861 51.101 161.481 50.836L159.457 50.76L157.472 50.323C156.151 50.53 156.272 50.286 155.978 51.681C155.724 52.896 155.093 54.4 153.504 54.475C147.971 54.73 142.439 54.79 137.139 54.975C136.58 54.994 135.881 54.661 135.892 54.023L135.935 51.613C135.939 51.548 135.93 51.483 135.908 51.4216C135.887 51.3602 135.853 51.3037 135.81 51.2553C135.766 51.2069 135.713 51.1677 135.655 51.1398C135.596 51.112 135.532 51.096 135.467 51.093L133.625 50.928C133.486 50.932 133.353 50.9871 133.252 51.0829C133.151 51.1787 133.089 51.3083 133.078 51.447L132.695 53.547C132.437 54.973 132.195 55.38 130.764 55.44L107.847 56.415C107.571 56.427 108.272 55.134 108.336 54.067C108.444 52.267 103.355 51.943 101.312 52.075C104.172 49.784 110.663 46.24 116.355 43.467C117.017 43.144 117.411 43.129 116.979 42.449L116.55 41.773C116.233 41.273 115.83 41.318 115.317 41.559C107.783 44.9532 100.428 48.7332 93.283 52.884C83.2568 54.0034 73.316 55.787 63.526 58.223C60.405 58.997 58.895 58.644 57.936 60.5C57.1671 62.1507 56.4926 63.8437 55.916 65.571C55.152 65.634 55.123 65.865 54.881 66.312C54.6943 67.2034 54.6344 68.1168 54.703 69.025C54.726 69.983 54.795 71.425 54.878 72.351C55.05 74.3 55.378 75.391 56.367 76.129C57.0421 76.5737 57.8288 76.819 58.637 76.837L61.661 76.937C63.641 76.658 63.996 76.865 63.789 74.272C63.742 73.682 63.721 73.072 63.721 72.452C63.7057 70.6685 64.0437 68.8997 64.7156 67.2475C65.3875 65.5954 66.3799 64.0926 67.6356 62.8261C68.8913 61.5595 70.3855 60.5542 72.0318 59.8681C73.6781 59.182 75.444 58.8288 77.2275 58.8288C79.011 58.8288 80.7769 59.182 82.4232 59.8681C84.0696 60.5542 85.5637 61.5595 86.8194 62.8261C88.0751 64.0926 89.0676 65.5954 89.7394 67.2475C90.4113 68.8997 90.7494 70.6685 90.734 72.452C90.7429 73.4755 90.6761 74.4983 90.534 75.512C90.001 79.101 90.534 78.497 93.334 78.497H150.317C152.185 78.114 152.849 78.12 152.543 75.516C152.434 74.4984 152.385 73.4753 152.395 72.452C152.395 68.87 153.818 65.4347 156.351 62.9018C158.884 60.3689 162.319 58.946 165.901 58.946C169.483 58.946 172.918 60.3689 175.451 62.9018C177.984 65.4347 179.407 68.87 179.407 72.452C179.407 72.959 179.418 73.46 179.422 73.952C179.442 76.52 179.564 77.16 181.662 76.981L181.657 76.985ZM165.896 62.065C167.951 62.0648 169.96 62.674 171.669 63.8155C173.377 64.9571 174.709 66.5797 175.496 68.4782C176.282 70.3767 176.488 72.4658 176.087 74.4814C175.687 76.4969 174.697 78.3483 173.244 79.8015C171.791 81.2546 169.94 82.2443 167.924 82.6453C165.909 83.0463 163.82 82.8406 161.921 82.0542C160.023 81.2678 158.4 79.9361 157.258 78.2275C156.116 76.5188 155.507 74.51 155.507 72.455C155.507 71.0906 155.775 69.7395 156.298 68.479C156.82 67.2184 157.585 66.073 158.55 65.1082C159.514 64.1434 160.66 63.3781 161.92 62.8559C163.181 62.3337 164.532 62.065 165.896 62.065ZM77.228 62.065C79.283 62.0648 81.2919 62.674 83.0007 63.8155C84.7094 64.9571 86.0413 66.5797 86.8278 68.4782C87.6144 70.3767 87.8203 72.4658 87.4195 74.4814C87.0187 76.4969 86.0292 78.3483 84.5762 79.8015C83.1232 81.2546 81.2718 82.2443 79.2564 82.6453C77.2409 83.0463 75.1517 82.8406 73.2532 82.0542C71.3546 81.2678 69.7318 79.9361 68.5901 78.2275C67.4484 76.5188 66.839 74.51 66.839 72.455C66.839 69.6996 67.9335 67.057 69.8818 65.1085C71.8301 63.16 74.4726 62.0652 77.228 62.065Z" fill="white"/>
                       </g>
                       <defs>
                           <clipPath id="clip0_2_73">
                               <rect width="130" height="46" fill="white" transform="translate(30 26)"/>
                           </clipPath>
                           <clipPath id="clip1_2_73">
                               <rect width="139" height="42" fill="white" transform="translate(54 41)"/>
                           </clipPath>
                       </defs>
                   </svg>