 <svg width="50" height="35.2" viewBox="0 0 142 100" fill="none" xmlns="http://www.w3.org/2000/svg">
                        <g clip-path="url(#clip0_1_42)">
                            <mask id="mask0_1_42" style="mask-type:luminance" maskUnits="userSpaceOnUse" x="18" y="0" width="100" height="100">
                                <path d="M18 0H118V100H18V0Z" fill="white"/>
                            </mask>
                            <g mask="url(#mask0_1_42)">
                                <path d="M100.119 33.3333C96.2635 33.3347 92.5102 34.5724 89.4104 36.8646C86.3127 34.5728 82.5616 33.3351 78.7083 33.3333C74.7229 33.3333 71.0208 34.6437 68.0021 36.8646C64.9029 34.5731 61.1502 33.3365 57.2958 33.3365C53.4415 33.3365 49.6888 34.5731 46.5896 36.8646C43.4987 34.5552 39.7396 33.3156 35.8812 33.3333C26.0292 33.3333 18 41.25 18 50.9875C18 60.725 26.0292 68.6417 35.8812 68.6417C39.8687 68.6417 43.5687 67.3292 46.5896 65.1104C49.6878 67.4026 53.4398 68.6403 57.2937 68.6417C61.2792 68.6417 64.9812 67.3292 68 65.1104C71.0904 67.4192 74.8487 68.6588 78.7062 68.6417C82.6917 68.6417 86.3937 67.3292 89.4125 65.1104C92.5029 67.4192 96.2612 68.6588 100.119 68.6417C109.971 68.6417 118 60.725 118 50.9875C118 41.2479 109.971 33.3333 100.119 33.3333ZM89.4104 60.0979C87.1774 57.5883 85.9424 54.3468 85.9396 50.9875C85.9396 47.5125 87.2479 44.325 89.4125 41.875C91.6468 44.3849 92.8825 47.6273 92.8854 50.9875C92.882 54.347 91.6442 57.5886 89.4104 60.0979ZM68 60.0979C65.7662 57.5886 64.5305 54.347 64.5271 50.9875C64.5271 47.5125 65.8354 44.325 68 41.875C70.2343 44.3849 71.47 47.6273 71.4729 50.9875C71.4695 54.347 70.2338 57.5886 68 60.0979ZM46.5875 60.0979C44.3537 57.5886 43.118 54.347 43.1146 50.9875C43.1146 47.5125 44.4229 44.325 46.5875 41.875C48.8225 44.3846 50.059 47.627 50.0625 50.9875C50.1187 54.4604 48.75 57.65 46.5875 60.0979ZM21.7021 50.9875C21.7021 43.3 28.0792 37.0354 35.8812 37.0354C38.6998 37.0237 41.4573 37.8567 43.7979 39.4271C40.9638 42.6099 39.4025 46.7258 39.4125 50.9875C39.4125 55.4292 41.0646 59.4729 43.7979 62.5479C41.5187 64.0271 38.8437 64.9396 35.8812 64.9396C28.0792 64.9396 21.7021 58.675 21.7021 50.9875ZM49.3792 62.5479C52.213 59.3642 53.7736 55.2476 53.7625 50.9854C53.7726 46.7247 52.212 42.6097 49.3792 39.4271C51.6562 37.9479 54.3333 37.0354 57.2937 37.0354C60.2542 37.0354 62.9312 37.8896 65.2104 39.4271C62.475 42.5021 60.7667 46.5458 60.7667 50.9875C60.7667 55.4292 62.4187 59.4729 65.2104 62.5479C62.9312 64.0271 60.2542 64.9396 57.2937 64.9396C54.4791 64.9245 51.7292 64.0938 49.3771 62.5479H49.3792ZM70.7896 62.5479C73.525 59.4729 75.2333 55.4292 75.2333 50.9854C75.2487 46.7127 73.6633 42.5891 70.7896 39.4271C73.0687 37.9479 75.7458 37.0354 78.7062 37.0354C81.6667 37.0354 84.3437 37.8896 86.6229 39.4271C83.8875 42.5021 82.1792 46.5458 82.1792 50.9875C82.1792 55.4292 83.8312 59.4729 86.6208 62.5479C84.3437 64.0271 81.6667 64.9396 78.7062 64.9396C75.7458 64.9396 73.0687 64.0271 70.7896 62.5479ZM100.119 64.9396C97.3001 64.9518 94.5425 64.1187 92.2021 62.5479C94.9354 59.4729 96.6437 55.4292 96.6437 50.9854C96.6597 46.7129 95.0751 42.5894 92.2021 39.4271C94.4812 37.9479 97.1562 37.0354 100.119 37.0354C107.921 37.0354 114.298 43.3 114.298 50.9875C114.298 58.675 107.921 64.9396 100.119 64.9396Z" fill="#73818F"/>
                            </g>
                        </g>
                        <path d="M128.821 71.9999C128.821 80.4056 122.009 87.2098 113.593 87.2098V71.9999H128.821ZM113.593 56.79V71.9999H98.3658C98.3658 63.5942 105.178 56.79 113.593 56.79Z" fill="#73818F"/>
                        <path d="M113.593 56.79C122.009 56.79 128.821 63.5942 128.821 71.9999H113.593V56.79ZM98.3658 71.9999H113.593V87.2098C105.178 87.2098 98.3658 80.4056 98.3658 71.9999Z" fill="white"/>
                        <path d="M113.594 56.7901V57.6241C121.529 57.6241 127.986 64.0724 127.986 72H128.821C128.821 63.6004 122.003 56.7901 113.594 56.7901ZM113.594 86.3759C105.658 86.3759 99.2008 79.9276 99.2008 72H98.3658C98.3658 80.3996 105.184 87.2099 113.594 87.2099M113.594 46.3333C99.402 46.3333 87.8968 57.8251 87.8968 72C87.8968 86.1749 99.402 97.6667 113.594 97.6667C127.785 97.6667 139.29 86.1749 139.29 72C139.29 57.8251 127.785 46.3333 113.594 46.3333ZM137.619 72C137.619 85.2529 126.863 95.9976 113.594 95.9976C100.324 95.9976 89.5678 85.2529 89.5678 72C89.5678 58.7471 100.325 48.0024 113.594 48.0024C126.862 48.0024 137.619 58.7471 137.619 72Z" fill="#6F6F6F"/>
                        <path d="M113.594 56.7901V57.6241C121.529 57.6241 127.986 64.0724 127.986 72H128.821C128.821 63.6004 122.003 56.7901 113.594 56.7901ZM113.594 86.3759C105.658 86.3759 99.2008 79.9276 99.2008 72H98.3658C98.3658 80.3996 105.184 87.2099 113.594 87.2099M113.594 46.3333C99.402 46.3333 87.8968 57.8251 87.8968 72C87.8968 86.1749 99.402 97.6667 113.594 97.6667C127.785 97.6667 139.29 86.1749 139.29 72C139.29 57.8251 127.785 46.3333 113.594 46.3333ZM137.619 72C137.619 85.2529 126.863 95.9976 113.594 95.9976C100.324 95.9976 89.5678 85.2529 89.5678 72C89.5678 58.7471 100.325 48.0024 113.594 48.0024C126.862 48.0024 137.619 58.7471 137.619 72Z" fill="white"/>
                        <path d="M102.612 59.6178C103.433 58.7599 103.898 57.7686 103.077 56.8223C102.63 56.3088 101.88 56.1965 101.258 56.4495L101.196 56.4735L101.216 56.4196C101.308 56.1755 101.367 55.3969 100.698 54.8594C100.372 54.5973 99.9632 54.5 99.5496 54.542C98.7782 54.6198 98.185 55.1424 96.5699 56.9286C96.0823 57.4677 95.3729 58.3182 94.9473 58.8692L99.3835 63.0436C100.854 61.4296 101.453 60.8291 102.612 59.6178ZM96.8235 58.5967C97.7171 57.5126 98.6665 56.5289 99.0968 56.1396C99.2326 56.0169 99.3805 55.894 99.5601 55.8461C99.8515 55.7667 100.152 55.9719 100.22 56.2684C100.288 56.5663 100.099 56.8493 99.8892 57.0829C99.4167 57.6115 97.6839 59.4097 97.6839 59.4097L96.8235 58.5967ZM98.5609 60.2317C98.5609 60.2317 100.248 58.4619 100.799 57.8959C101.018 57.6714 101.159 57.5351 101.31 57.4617C101.504 57.3674 101.717 57.3479 101.907 57.4737C102.094 57.598 102.181 57.8121 102.134 58.0247C102.078 58.2778 101.87 58.5188 101.698 58.703C101.465 58.95 99.4635 61.0747 99.4605 61.0778L98.5609 60.2317ZM114.101 54.6393L115.521 51.483L115.612 51.203L115.586 51.4949L115.736 55.7129C116.234 55.7593 116.748 55.8281 117.256 55.912L117.025 49.6652C116.315 49.5874 115.609 49.532 114.902 49.502L113.503 52.9473L113.453 53.2034L113.403 52.9473L112.006 49.502C111.299 49.532 110.593 49.5874 109.883 49.6652L109.652 55.912C110.16 55.8281 110.674 55.7607 111.172 55.7129L111.322 51.4949L111.296 51.203L111.387 51.483L112.807 54.6393H114.101ZM125.897 61.169C126.246 61.5404 126.749 62.1393 127.031 62.5031L132.229 59.23C131.97 58.8931 131.556 58.3811 131.247 58.0203L127.955 60.1793L127.73 60.3709L127.897 60.1285L129.351 57.2506L128.323 56.231L125.42 57.6729L125.176 57.839L125.37 57.6159L127.549 54.3518C127.165 54.0284 126.797 53.732 126.327 53.3725L123.028 58.5248C123.446 58.8437 123.997 59.3124 124.349 59.6313L127.455 58.0322L127.654 57.887L127.508 58.0846L125.897 61.169Z" fill="white"/>
                        <path d="M25 97.7C12.55 97.7 2.35 87.45 2.35 75C2.35 72.2 2.85 69.55 3.8 67.05L17.05 93.7C17.2 94.05 17.45 94.35 17.85 94.35C18.25 94.35 18.5 94.05 18.65 93.7L24.75 80.05C24.8 79.9 24.9 79.75 25.05 79.75C25.2 79.75 25.25 79.9 25.35 80.05L31.45 93.7C31.6 94.05 31.85 94.35 32.25 94.35C32.65 94.35 32.9 94.05 33.05 93.7L46.3 67.05C47.25 69.55 47.75 72.2 47.75 75C47.65 87.45 37.45 97.7 25 97.7ZM25 69.85C24.85 69.85 24.8 69.7 24.7 69.55L17.6 53.55C19.9703 52.6821 22.4758 52.242 25 52.25C27.6 52.25 30.1 52.7 32.4 53.55L25.3 69.55C25.2 69.75 25.15 69.85 25 69.85ZM17.75 86.3C17.6 86.3 17.55 86.15 17.45 86L5.95 62.8C8 59.65 10.75 57 14.1 55.15L22.4 73.6C22.5 73.9 22.75 74 23 74H27C27.3 74 27.5 73.95 27.65 73.6L35.95 55.15C39.25 57 42.05 59.65 44.1 62.8L32.5 86C32.45 86.15 32.35 86.3 32.2 86.3C32.05 86.3 32 86.15 31.9 86L27.55 76.1C27.4 75.75 27.2 75.7 26.9 75.7H22.9C22.6 75.7 22.4 75.75 22.25 76.1L18.05 86C18 86.15 17.9 86.3 17.75 86.3ZM25 100C38.85 100 50 88.85 50 75C50 61.15 38.85 50 25 50C11.15 50 0 61.15 0 75C0 88.85 11.15 100 25 100Z" fill="white"/>
                        <defs>
                            <clipPath id="clip0_1_42">
                                <rect width="100" height="100" fill="white" transform="translate(18)"/>
                            </clipPath>
                        </defs>
                    </svg>