<svg width="38" height="50" viewBox="0 0 38 50" fill="none" xmlns="http://www.w3.org/2000/svg">
<path d="M25.1747 24.6864C25.1151 24.3598 24.8595 24.1041 24.5329 24.0446C23.7362 23.8993 22.9212 23.8256 22.1104 23.8256C18.522 23.8256 15.1486 25.2228 12.6117 27.7597C9.59267 30.7787 8.1948 35.0512 8.82735 39.2633L5.87108 42.2199C5.55948 42.5315 5.55959 43.0367 5.87108 43.3483C6.02693 43.504 6.23108 43.5819 6.43523 43.5819C6.63938 43.5819 6.84363 43.504 6.99948 43.3482L9.95619 40.3912C10.6188 40.4905 11.2912 40.5416 11.9608 40.5416C15.5491 40.5416 18.9227 39.1444 21.4596 36.6076C24.5785 33.4886 25.9674 29.0321 25.1747 24.6864ZM20.3313 35.4791C18.0957 37.7147 15.123 38.9459 11.9609 38.9459C11.7792 38.9459 11.5974 38.9401 11.4155 38.9317L21.9394 28.4071C22.251 28.0955 22.2509 27.5903 21.9394 27.2787C21.6277 26.9671 21.1227 26.9672 20.811 27.2787L10.2862 37.8044C10.1353 34.5011 11.3715 31.2567 13.7402 28.888C15.9758 26.6524 18.9484 25.4213 22.1107 25.4213C22.6386 25.4213 23.1686 25.4567 23.6926 25.5268C24.1821 29.1789 22.9474 32.8631 20.3313 35.4791Z" fill="white"/>
<path d="M6.43532 15.8118C6.87596 15.8118 7.2332 15.4546 7.2332 15.0139V4.74798H23.6093V15.0139C23.6093 15.4546 23.9665 15.8118 24.4071 15.8118C24.8478 15.8118 25.205 15.4546 25.205 15.0139V3.95011C25.205 3.50947 24.8478 3.15224 24.4071 3.15224H6.43532C5.99469 3.15224 5.63745 3.50947 5.63745 3.95011V15.0139C5.63745 15.4546 5.99469 15.8118 6.43532 15.8118Z" fill="white"/>
<path d="M36.8838 7.81989H36.346C35.9588 5.20489 33.6998 3.19149 30.9788 3.19149C30.5382 3.19149 30.181 3.54872 30.181 3.98936C30.181 4.43 30.5382 4.78723 30.9788 4.78723C32.8174 4.78723 34.357 6.08947 34.7252 7.81989H33.2668C32.8262 7.81989 32.4689 8.17713 32.4689 8.61777C32.4689 9.0584 32.8262 9.41564 33.2668 9.41564H33.5328V16.4416C33.5328 16.8822 33.89 17.2395 34.3306 17.2395H34.8094V35.4703C34.8094 36.1084 34.2903 36.6273 33.6523 36.6273C33.0143 36.6273 32.4952 36.1083 32.4952 35.4703V16.4416C32.4952 14.1177 30.8023 12.183 28.5853 11.8028V3.98936C28.5853 1.78968 26.7957 0 24.596 0H6.43532C4.23553 0 2.44596 1.78968 2.44596 3.98936V48.4043H1.11617C0.675532 48.4043 0.318298 48.7615 0.318298 49.2021C0.318298 49.6428 0.675532 50 1.11617 50H29.915C30.3556 50 30.7129 49.6428 30.7129 49.2021C30.7129 48.7615 30.3556 48.4043 29.915 48.4043H28.5852V13.4337C29.9159 13.787 30.8994 15.0015 30.8994 16.4417V35.4704C30.8994 36.9884 32.1343 38.2232 33.6522 38.2232C35.1702 38.2232 36.405 36.9883 36.405 35.4704V17.2396H36.8837C37.3244 17.2396 37.6816 16.8823 37.6816 16.4417V8.61777C37.6817 8.17713 37.3245 7.81989 36.8838 7.81989ZM6.43532 1.59574H24.5959C25.9157 1.59574 26.9895 2.66957 26.9895 3.98936V17.4076H4.0417V3.98936C4.0417 2.66957 5.11543 1.59574 6.43532 1.59574ZM4.0417 48.4043V19.0033H26.9895V48.4043H4.0417ZM35.1285 15.6438V9.41564H36.086V15.6437H35.1285V15.6438Z" fill="white"/>
</svg>
